<svg id="visual" viewBox="0 0 1300 633" width="1300" height="633" xmlns="http://www.w3.org/2000/svg" xmlns:xlink="http://www.w3.org/1999/xlink" version="1.1"><path d="M0 578L100 581L200 595L300 585L400 595L500 578L600 584L700 611L800 590L900 606L1000 588L1100 611L1200 597L1300 582L1300 634L1200 634L1100 634L1000 634L900 634L800 634L700 634L600 634L500 634L400 634L300 634L200 634L100 634L0 634Z" fill="#c3a378"></path><path d="M0 594L100 619L200 601L300 615L400 605L500 591L600 608L700 612L800 612L900 600L1000 609L1100 605L1200 609L1300 618L1300 634L1200 634L1100 634L1000 634L900 634L800 634L700 634L600 634L500 634L400 634L300 634L200 634L100 634L0 634Z" fill="#e3d0ba"></path><path d="M0 627L100 618L200 621L300 624L400 622L500 624L600 623L700 623L800 621L900 618L1000 622L1100 616L1200 622L1300 606L1300 634L1200 634L1100 634L1000 634L900 634L800 634L700 634L600 634L500 634L400 634L300 634L200 634L100 634L0 634Z" fill="#ffffff"></path></svg>