<svg id="visual" viewBox="0 0 1300 633" width="1300" height="633" xmlns="http://www.w3.org/2000/svg" xmlns:xlink="http://www.w3.org/1999/xlink" version="1.1"><rect x="0" y="0" width="1300" height="633" fill="#deb887"></rect><path d="M0 49L100 46L200 29L300 34L400 51L500 41L600 42L700 24L800 22L900 40L1000 39L1100 36L1200 34L1300 44L1300 0L1200 0L1100 0L1000 0L900 0L800 0L700 0L600 0L500 0L400 0L300 0L200 0L100 0L0 0Z" fill="#c3a378"></path><path d="M0 25L100 37L200 14L300 36L400 14L500 30L600 26L700 12L800 31L900 27L1000 25L1100 36L1200 19L1300 34L1300 0L1200 0L1100 0L1000 0L900 0L800 0L700 0L600 0L500 0L400 0L300 0L200 0L100 0L0 0Z" fill="#e3d0ba"></path><path d="M0 20L100 13L200 22L300 20L400 15L500 10L600 24L700 23L800 21L900 9L1000 11L1100 11L1200 20L1300 9L1300 0L1200 0L1100 0L1000 0L900 0L800 0L700 0L600 0L500 0L400 0L300 0L200 0L100 0L0 0Z" fill="#ffffff"></path></svg>