<svg id="visual" viewBox="0 0 1300 633" width="1300" height="633" xmlns="http://www.w3.org/2000/svg" xmlns:xlink="http://www.w3.org/1999/xlink" version="1.1"><rect x="0" y="0" width="1300" height="633" fill="#001122"></rect><path d="M0 540L100 561L200 556L300 558L400 537L500 542L600 561L700 546L800 549L900 576L1000 562L1100 568L1200 565L1300 543L1300 634L1200 634L1100 634L1000 634L900 634L800 634L700 634L600 634L500 634L400 634L300 634L200 634L100 634L0 634Z" fill="#012a52"></path><path d="M0 582L100 582L200 578L300 579L400 579L500 566L600 564L700 574L800 592L900 594L1000 572L1100 593L1200 568L1300 577L1300 634L1200 634L1100 634L1000 634L900 634L800 634L700 634L600 634L500 634L400 634L300 634L200 634L100 634L0 634Z" fill="#838ca5"></path><path d="M0 611L100 610L200 609L300 594L400 602L500 605L600 591L700 602L800 588L900 590L1000 589L1100 609L1200 604L1300 611L1300 634L1200 634L1100 634L1000 634L900 634L800 634L700 634L600 634L500 634L400 634L300 634L200 634L100 634L0 634Z" fill="#ffffff"></path></svg>