<svg id="visual" viewBox="0 0 1300 633" width="1300" height="633" xmlns="http://www.w3.org/2000/svg" xmlns:xlink="http://www.w3.org/1999/xlink" version="1.1"><g stroke-width="1" stroke-linejoin="bevel"><path d="M723.2 340.8L874.7 262.2L718.2 252.2Z" fill="#edc48f" stroke="#edc48f"></path><path d="M874.7 262.2L744.2 161.6L718.2 252.2Z" fill="#efc590" stroke="#efc590"></path><path d="M723.2 340.8L899.7 385.8L874.7 262.2Z" fill="#e0b988" stroke="#e0b988"></path><path d="M874.7 262.2L842.7 145.6L744.2 161.6Z" fill="#efc590" stroke="#efc590"></path><path d="M723.2 340.8L893.7 469.4L899.7 385.8Z" fill="#edc48f" stroke="#edc48f"></path><path d="M564.8 266.2L591.8 377.8L723.2 340.8Z" fill="#efc590" stroke="#efc590"></path><path d="M723.2 340.8L706.2 530.4L893.7 469.4Z" fill="#ebc28e" stroke="#ebc28e"></path><path d="M564.8 266.2L723.2 340.8L718.2 252.2Z" fill="#edc48f" stroke="#edc48f"></path><path d="M559.8 128.6L564.8 266.2L718.2 252.2Z" fill="#e7bf8c" stroke="#e7bf8c"></path><path d="M899.7 385.8L1033.1 275.2L874.7 262.2Z" fill="#e9c18d" stroke="#e9c18d"></path><path d="M874.7 262.2L1033.1 118.6L842.7 145.6Z" fill="#e7bf8c" stroke="#e7bf8c"></path><path d="M1049.1 356.8L1033.1 275.2L899.7 385.8Z" fill="#edc48f" stroke="#edc48f"></path><path d="M591.8 377.8L706.2 530.4L723.2 340.8Z" fill="#ebc28e" stroke="#ebc28e"></path><path d="M1032.1 470.4L1049.1 356.8L899.7 385.8Z" fill="#e0b988" stroke="#e0b988"></path><path d="M744.2 161.6L559.8 128.6L718.2 252.2Z" fill="#e7bf8c" stroke="#e7bf8c"></path><path d="M740.2 0L559.8 128.6L744.2 161.6Z" fill="#e9c18d" stroke="#e9c18d"></path><path d="M1178.6 232.2L1033.1 118.6L1033.1 275.2Z" fill="#e5be8b" stroke="#e5be8b"></path><path d="M1033.1 275.2L1033.1 118.6L874.7 262.2Z" fill="#f1c791" stroke="#f1c791"></path><path d="M842.7 145.6L740.2 0L744.2 161.6Z" fill="#f1c791" stroke="#f1c791"></path><path d="M893.7 469.4L1032.1 470.4L899.7 385.8Z" fill="#deb887" stroke="#deb887"></path><path d="M971.1 633L1032.1 470.4L893.7 469.4Z" fill="#f1c791" stroke="#f1c791"></path><path d="M864.7 0L740.2 0L842.7 145.6Z" fill="#deb887" stroke="#deb887"></path><path d="M1033.1 118.6L864.7 0L842.7 145.6Z" fill="#e3bc8a" stroke="#e3bc8a"></path><path d="M404.3 394.8L558.8 512.4L591.8 377.8Z" fill="#e0b988" stroke="#e0b988"></path><path d="M591.8 377.8L558.8 512.4L706.2 530.4Z" fill="#e5be8b" stroke="#e5be8b"></path><path d="M462.3 247.2L591.8 377.8L564.8 266.2Z" fill="#f1c791" stroke="#f1c791"></path><path d="M559.8 128.6L462.3 247.2L564.8 266.2Z" fill="#deb887" stroke="#deb887"></path><path d="M742.2 633L841.7 633L706.2 530.4Z" fill="#edc48f" stroke="#edc48f"></path><path d="M706.2 530.4L841.7 633L893.7 469.4Z" fill="#e0b988" stroke="#e0b988"></path><path d="M598.8 633L742.2 633L706.2 530.4Z" fill="#e2bb89" stroke="#e2bb89"></path><path d="M740.2 0L571.8 0L559.8 128.6Z" fill="#deb887" stroke="#deb887"></path><path d="M559.8 128.6L436.3 113.6L462.3 247.2Z" fill="#e3bc8a" stroke="#e3bc8a"></path><path d="M1151.6 511.4L1143.6 416.8L1032.1 470.4Z" fill="#e3bc8a" stroke="#e3bc8a"></path><path d="M1032.1 470.4L1143.6 416.8L1049.1 356.8Z" fill="#e9c18d" stroke="#e9c18d"></path><path d="M1049.1 356.8L1178.6 232.2L1033.1 275.2Z" fill="#f1c791" stroke="#f1c791"></path><path d="M1033.1 118.6L1031.1 0L864.7 0Z" fill="#e2bb89" stroke="#e2bb89"></path><path d="M1172.6 0L1031.1 0L1033.1 118.6Z" fill="#e3bc8a" stroke="#e3bc8a"></path><path d="M841.7 633L971.1 633L893.7 469.4Z" fill="#deb887" stroke="#deb887"></path><path d="M1143.6 416.8L1178.6 232.2L1049.1 356.8Z" fill="#e2bb89" stroke="#e2bb89"></path><path d="M558.8 512.4L598.8 633L706.2 530.4Z" fill="#e5be8b" stroke="#e5be8b"></path><path d="M416.3 633L598.8 633L558.8 512.4Z" fill="#e7bf8c" stroke="#e7bf8c"></path><path d="M470.3 0L436.3 113.6L559.8 128.6Z" fill="#f1c791" stroke="#f1c791"></path><path d="M254.9 287.2L404.3 394.8L462.3 247.2Z" fill="#efc590" stroke="#efc590"></path><path d="M462.3 247.2L404.3 394.8L591.8 377.8Z" fill="#deb887" stroke="#deb887"></path><path d="M1116.6 633L1151.6 511.4L1032.1 470.4Z" fill="#deb887" stroke="#deb887"></path><path d="M1300 340.8L1300 263.2L1178.6 232.2Z" fill="#edc48f" stroke="#edc48f"></path><path d="M1300 162.6L1191.6 144.6L1178.6 232.2Z" fill="#ebc28e" stroke="#ebc28e"></path><path d="M1178.6 232.2L1191.6 144.6L1033.1 118.6Z" fill="#deb887" stroke="#deb887"></path><path d="M571.8 0L470.3 0L559.8 128.6Z" fill="#e2bb89" stroke="#e2bb89"></path><path d="M404.3 394.8L399.3 516.4L558.8 512.4Z" fill="#e7bf8c" stroke="#e7bf8c"></path><path d="M971.1 633L1116.6 633L1032.1 470.4Z" fill="#deb887" stroke="#deb887"></path><path d="M1191.6 144.6L1172.6 0L1033.1 118.6Z" fill="#e2bb89" stroke="#e2bb89"></path><path d="M1300 340.8L1178.6 232.2L1143.6 416.8Z" fill="#efc590" stroke="#efc590"></path><path d="M1191.6 144.6L1300 0L1172.6 0Z" fill="#edc48f" stroke="#edc48f"></path><path d="M1300 340.8L1143.6 416.8L1300 534.4Z" fill="#e0b988" stroke="#e0b988"></path><path d="M1300 534.4L1143.6 416.8L1151.6 511.4Z" fill="#e2bb89" stroke="#e2bb89"></path><path d="M399.3 516.4L416.3 633L558.8 512.4Z" fill="#e7bf8c" stroke="#e7bf8c"></path><path d="M272.9 0L300.9 151.6L436.3 113.6Z" fill="#efc590" stroke="#efc590"></path><path d="M436.3 113.6L300.9 151.6L462.3 247.2Z" fill="#e0b988" stroke="#e0b988"></path><path d="M404.3 394.8L285.9 411.8L399.3 516.4Z" fill="#edc48f" stroke="#edc48f"></path><path d="M399.3 516.4L313.9 633L416.3 633Z" fill="#e0b988" stroke="#e0b988"></path><path d="M254.9 287.2L285.9 411.8L404.3 394.8Z" fill="#efc590" stroke="#efc590"></path><path d="M1300 263.2L1300 162.6L1178.6 232.2Z" fill="#e5be8b" stroke="#e5be8b"></path><path d="M300.9 151.6L254.9 287.2L462.3 247.2Z" fill="#edc48f" stroke="#edc48f"></path><path d="M1300 633L1300 534.4L1151.6 511.4Z" fill="#ebc28e" stroke="#ebc28e"></path><path d="M141.4 397.8L262.9 499.4L285.9 411.8Z" fill="#e7bf8c" stroke="#e7bf8c"></path><path d="M285.9 411.8L262.9 499.4L399.3 516.4Z" fill="#e2bb89" stroke="#e2bb89"></path><path d="M1300 162.6L1300 0L1191.6 144.6Z" fill="#f1c791" stroke="#f1c791"></path><path d="M262.9 499.4L313.9 633L399.3 516.4Z" fill="#e0b988" stroke="#e0b988"></path><path d="M300.9 151.6L162.4 96.6L254.9 287.2Z" fill="#edc48f" stroke="#edc48f"></path><path d="M470.3 0L272.9 0L436.3 113.6Z" fill="#efc590" stroke="#efc590"></path><path d="M1116.6 633L1300 633L1151.6 511.4Z" fill="#deb887" stroke="#deb887"></path><path d="M254.9 287.2L141.4 397.8L285.9 411.8Z" fill="#ebc28e" stroke="#ebc28e"></path><path d="M262.9 499.4L173.4 633L313.9 633Z" fill="#e2bb89" stroke="#e2bb89"></path><path d="M111.4 253.2L141.4 397.8L254.9 287.2Z" fill="#e7bf8c" stroke="#e7bf8c"></path><path d="M272.9 0L162.4 96.6L300.9 151.6Z" fill="#e7bf8c" stroke="#e7bf8c"></path><path d="M162.4 96.6L111.4 253.2L254.9 287.2Z" fill="#e2bb89" stroke="#e2bb89"></path><path d="M106.4 479.4L262.9 499.4L141.4 397.8Z" fill="#efc590" stroke="#efc590"></path><path d="M106.4 479.4L173.4 633L262.9 499.4Z" fill="#edc48f" stroke="#edc48f"></path><path d="M0 87.6L0 265.2L111.4 253.2Z" fill="#e7bf8c" stroke="#e7bf8c"></path><path d="M272.9 0L145.4 0L162.4 96.6Z" fill="#e2bb89" stroke="#e2bb89"></path><path d="M0 396.8L106.4 479.4L141.4 397.8Z" fill="#ebc28e" stroke="#ebc28e"></path><path d="M0 87.6L111.4 253.2L162.4 96.6Z" fill="#ebc28e" stroke="#ebc28e"></path><path d="M111.4 253.2L0 396.8L141.4 397.8Z" fill="#e7bf8c" stroke="#e7bf8c"></path><path d="M106.4 479.4L0 533.4L173.4 633Z" fill="#e3bc8a" stroke="#e3bc8a"></path><path d="M0 265.2L0 396.8L111.4 253.2Z" fill="#ebc28e" stroke="#ebc28e"></path><path d="M145.4 0L0 87.6L162.4 96.6Z" fill="#e3bc8a" stroke="#e3bc8a"></path><path d="M0 396.8L0 533.4L106.4 479.4Z" fill="#e3bc8a" stroke="#e3bc8a"></path><path d="M145.4 0L0 0L0 87.6Z" fill="#e5be8b" stroke="#e5be8b"></path><path d="M0 533.4L0 633L173.4 633Z" fill="#e0b988" stroke="#e0b988"></path></g></svg>