<svg id="visual" viewBox="0 0 1300 2300" width="1300" height="2300" xmlns="http://www.w3.org/2000/svg" xmlns:xlink="http://www.w3.org/1999/xlink" version="1.1"><g stroke-width="1" stroke-linejoin="bevel"><path d="M573.1 1224.5L735.9 1238.5L739.9 1073.5Z" fill="#0b0b0b" stroke="#0b0b0b"></path><path d="M739.9 1073.5L553.1 1060.5L573.1 1224.5Z" fill="#070707" stroke="#070707"></path><path d="M735.9 1238.5L926.6 1247.5L739.9 1073.5Z" fill="#070707" stroke="#070707"></path><path d="M722.9 871.6L553.1 1060.5L739.9 1073.5Z" fill="#020202" stroke="#020202"></path><path d="M722.9 871.6L562.1 883.6L553.1 1060.5Z" fill="#060606" stroke="#060606"></path><path d="M386.4 1397.4L566.1 1426.4L573.1 1224.5Z" fill="#010101" stroke="#010101"></path><path d="M573.1 1224.5L566.1 1426.4L735.9 1238.5Z" fill="#0c0c0c" stroke="#0c0c0c"></path><path d="M735.9 1238.5L762.9 1428.4L926.6 1247.5Z" fill="#010101" stroke="#010101"></path><path d="M921.6 904.6L722.9 871.6L739.9 1073.5Z" fill="#0b0b0b" stroke="#0b0b0b"></path><path d="M926.6 1247.5L937.6 1061.5L739.9 1073.5Z" fill="#060606" stroke="#060606"></path><path d="M566.1 1426.4L762.9 1428.4L735.9 1238.5Z" fill="#050505" stroke="#050505"></path><path d="M386.4 904.6L376.4 1064.5L553.1 1060.5Z" fill="#0a0a0a" stroke="#0a0a0a"></path><path d="M553.1 1060.5L360.4 1223.5L573.1 1224.5Z" fill="#010101" stroke="#010101"></path><path d="M376.4 1064.5L360.4 1223.5L553.1 1060.5Z" fill="#060606" stroke="#060606"></path><path d="M937.6 1061.5L921.6 904.6L739.9 1073.5Z" fill="#050505" stroke="#050505"></path><path d="M360.4 1223.5L386.4 1397.4L573.1 1224.5Z" fill="#000000" stroke="#000000"></path><path d="M762.9 1428.4L941.6 1395.4L926.6 1247.5Z" fill="#010101" stroke="#010101"></path><path d="M926.6 1247.5L1098.3 1220.5L937.6 1061.5Z" fill="#000000" stroke="#000000"></path><path d="M562.1 883.6L386.4 904.6L553.1 1060.5Z" fill="#080808" stroke="#080808"></path><path d="M376.4 1064.5L192.7 1074.5L360.4 1223.5Z" fill="#010101" stroke="#010101"></path><path d="M921.6 904.6L741.9 720.7L722.9 871.6Z" fill="#080808" stroke="#080808"></path><path d="M722.9 871.6L741.9 720.7L562.1 883.6Z" fill="#0c0c0c" stroke="#0c0c0c"></path><path d="M562.1 883.6L544.1 694.7L386.4 904.6Z" fill="#040404" stroke="#040404"></path><path d="M1095.3 1397.4L1098.3 1220.5L926.6 1247.5Z" fill="#0c0c0c" stroke="#0c0c0c"></path><path d="M937.6 1061.5L1119.3 1054.5L921.6 904.6Z" fill="#080808" stroke="#080808"></path><path d="M566.1 1426.4L751.9 1594.3L762.9 1428.4Z" fill="#050505" stroke="#050505"></path><path d="M762.9 1428.4L915.6 1598.3L941.6 1395.4Z" fill="#060606" stroke="#060606"></path><path d="M557.1 1596.3L751.9 1594.3L566.1 1426.4Z" fill="#020202" stroke="#020202"></path><path d="M385.4 1605.3L557.1 1596.3L566.1 1426.4Z" fill="#000000" stroke="#000000"></path><path d="M1098.3 1220.5L1119.3 1054.5L937.6 1061.5Z" fill="#070707" stroke="#070707"></path><path d="M921.6 904.6L929.6 695.7L741.9 720.7Z" fill="#040404" stroke="#040404"></path><path d="M741.9 720.7L544.1 694.7L562.1 883.6Z" fill="#020202" stroke="#020202"></path><path d="M182.7 874.6L192.7 1074.5L386.4 904.6Z" fill="#050505" stroke="#050505"></path><path d="M386.4 904.6L192.7 1074.5L376.4 1064.5Z" fill="#0c0c0c" stroke="#0c0c0c"></path><path d="M360.4 1223.5L195.7 1250.5L386.4 1397.4Z" fill="#0c0c0c" stroke="#0c0c0c"></path><path d="M192.7 1074.5L195.7 1250.5L360.4 1223.5Z" fill="#0b0b0b" stroke="#0b0b0b"></path><path d="M386.4 1397.4L385.4 1605.3L566.1 1426.4Z" fill="#0b0b0b" stroke="#0b0b0b"></path><path d="M1093.3 1598.3L1095.3 1397.4L941.6 1395.4Z" fill="#0c0c0c" stroke="#0c0c0c"></path><path d="M941.6 1395.4L1095.3 1397.4L926.6 1247.5Z" fill="#040404" stroke="#040404"></path><path d="M1098.3 1220.5L1300 1070.5L1119.3 1054.5Z" fill="#0a0a0a" stroke="#0a0a0a"></path><path d="M762.9 1753.2L915.6 1598.3L751.9 1594.3Z" fill="#0c0c0c" stroke="#0c0c0c"></path><path d="M751.9 1594.3L915.6 1598.3L762.9 1428.4Z" fill="#080808" stroke="#080808"></path><path d="M178.7 1423.4L385.4 1605.3L386.4 1397.4Z" fill="#000000" stroke="#000000"></path><path d="M557.1 1596.3L762.9 1753.2L751.9 1594.3Z" fill="#0c0c0c" stroke="#0c0c0c"></path><path d="M1110.3 707.7L929.6 695.7L921.6 904.6Z" fill="#0a0a0a" stroke="#0a0a0a"></path><path d="M741.9 720.7L750.9 533.8L544.1 694.7Z" fill="#000000" stroke="#000000"></path><path d="M1119.3 1054.5L1125.3 882.6L921.6 904.6Z" fill="#0c0c0c" stroke="#0c0c0c"></path><path d="M544.1 694.7L356.4 694.7L386.4 904.6Z" fill="#000000" stroke="#000000"></path><path d="M0 1418.4L178.7 1423.4L195.7 1250.5Z" fill="#040404" stroke="#040404"></path><path d="M195.7 1250.5L178.7 1423.4L386.4 1397.4Z" fill="#070707" stroke="#070707"></path><path d="M356.4 694.7L182.7 874.6L386.4 904.6Z" fill="#060606" stroke="#060606"></path><path d="M192.7 1074.5L0 1220.5L195.7 1250.5Z" fill="#0a0a0a" stroke="#0a0a0a"></path><path d="M553.1 1789.2L762.9 1753.2L557.1 1596.3Z" fill="#010101" stroke="#010101"></path><path d="M915.6 1598.3L1093.3 1598.3L941.6 1395.4Z" fill="#0c0c0c" stroke="#0c0c0c"></path><path d="M1300 1245.5L1300 1070.5L1098.3 1220.5Z" fill="#010101" stroke="#010101"></path><path d="M946.6 1782.2L1093.3 1598.3L915.6 1598.3Z" fill="#040404" stroke="#040404"></path><path d="M914.6 548.8L750.9 533.8L741.9 720.7Z" fill="#080808" stroke="#080808"></path><path d="M544.1 694.7L365.4 516.8L356.4 694.7Z" fill="#070707" stroke="#070707"></path><path d="M1125.3 882.6L1110.3 707.7L921.6 904.6Z" fill="#070707" stroke="#070707"></path><path d="M929.6 695.7L914.6 548.8L741.9 720.7Z" fill="#070707" stroke="#070707"></path><path d="M750.9 533.8L563.1 522.8L544.1 694.7Z" fill="#000000" stroke="#000000"></path><path d="M374.4 1789.2L553.1 1789.2L385.4 1605.3Z" fill="#020202" stroke="#020202"></path><path d="M385.4 1605.3L553.1 1789.2L557.1 1596.3Z" fill="#050505" stroke="#050505"></path><path d="M1300 1245.5L1098.3 1220.5L1095.3 1397.4Z" fill="#0b0b0b" stroke="#0b0b0b"></path><path d="M1119.3 1054.5L1300 1070.5L1125.3 882.6Z" fill="#020202" stroke="#020202"></path><path d="M1125.3 882.6L1300 864.6L1110.3 707.7Z" fill="#040404" stroke="#040404"></path><path d="M0 1418.4L175.7 1579.3L178.7 1423.4Z" fill="#010101" stroke="#010101"></path><path d="M178.7 1423.4L175.7 1579.3L385.4 1605.3Z" fill="#010101" stroke="#010101"></path><path d="M1300 1424.4L1300 1245.5L1095.3 1397.4Z" fill="#0c0c0c" stroke="#0c0c0c"></path><path d="M356.4 694.7L187.7 709.7L182.7 874.6Z" fill="#080808" stroke="#080808"></path><path d="M203.7 524.8L187.7 709.7L356.4 694.7Z" fill="#040404" stroke="#040404"></path><path d="M1097.3 534.8L914.6 548.8L929.6 695.7Z" fill="#080808" stroke="#080808"></path><path d="M0 1070.5L192.7 1074.5L182.7 874.6Z" fill="#070707" stroke="#070707"></path><path d="M0 1070.5L0 1220.5L192.7 1074.5Z" fill="#040404" stroke="#040404"></path><path d="M0 875.6L0 1070.5L182.7 874.6Z" fill="#000000" stroke="#000000"></path><path d="M937.6 1951.2L946.6 1782.2L762.9 1753.2Z" fill="#070707" stroke="#070707"></path><path d="M762.9 1753.2L946.6 1782.2L915.6 1598.3Z" fill="#060606" stroke="#060606"></path><path d="M1300 1593.3L1300 1424.4L1093.3 1598.3Z" fill="#040404" stroke="#040404"></path><path d="M1093.3 1598.3L1300 1424.4L1095.3 1397.4Z" fill="#020202" stroke="#020202"></path><path d="M201.7 1769.2L374.4 1789.2L385.4 1605.3Z" fill="#0c0c0c" stroke="#0c0c0c"></path><path d="M1300 1070.5L1300 864.6L1125.3 882.6Z" fill="#060606" stroke="#060606"></path><path d="M563.1 522.8L365.4 516.8L544.1 694.7Z" fill="#0b0b0b" stroke="#0b0b0b"></path><path d="M0 1220.5L0 1418.4L195.7 1250.5Z" fill="#0c0c0c" stroke="#0c0c0c"></path><path d="M175.7 1579.3L201.7 1769.2L385.4 1605.3Z" fill="#0a0a0a" stroke="#0a0a0a"></path><path d="M187.7 709.7L0 875.6L182.7 874.6Z" fill="#0b0b0b" stroke="#0b0b0b"></path><path d="M0 689.7L0 875.6L187.7 709.7Z" fill="#060606" stroke="#060606"></path><path d="M1110.3 707.7L1097.3 534.8L929.6 695.7Z" fill="#0a0a0a" stroke="#0a0a0a"></path><path d="M938.6 349.8L726.9 359.8L750.9 533.8Z" fill="#0b0b0b" stroke="#0b0b0b"></path><path d="M750.9 533.8L726.9 359.8L563.1 522.8Z" fill="#060606" stroke="#060606"></path><path d="M563.1 522.8L357.4 365.8L365.4 516.8Z" fill="#0a0a0a" stroke="#0a0a0a"></path><path d="M1300 548.8L1097.3 534.8L1110.3 707.7Z" fill="#060606" stroke="#060606"></path><path d="M0 1767.2L201.7 1769.2L175.7 1579.3Z" fill="#0b0b0b" stroke="#0b0b0b"></path><path d="M937.6 1951.2L1097.3 1788.2L946.6 1782.2Z" fill="#0b0b0b" stroke="#0b0b0b"></path><path d="M946.6 1782.2L1097.3 1788.2L1093.3 1598.3Z" fill="#060606" stroke="#060606"></path><path d="M1300 1770.2L1300 1593.3L1093.3 1598.3Z" fill="#0a0a0a" stroke="#0a0a0a"></path><path d="M365.4 516.8L203.7 524.8L356.4 694.7Z" fill="#0a0a0a" stroke="#0a0a0a"></path><path d="M1300 864.6L1300 692.7L1110.3 707.7Z" fill="#010101" stroke="#010101"></path><path d="M0 1418.4L0 1591.3L175.7 1579.3Z" fill="#050505" stroke="#050505"></path><path d="M374.4 1789.2L564.1 1942.2L553.1 1789.2Z" fill="#020202" stroke="#020202"></path><path d="M553.1 1789.2L731.9 1957.2L762.9 1753.2Z" fill="#040404" stroke="#040404"></path><path d="M360.4 1963.2L564.1 1942.2L374.4 1789.2Z" fill="#0b0b0b" stroke="#0b0b0b"></path><path d="M938.6 349.8L750.9 533.8L914.6 548.8Z" fill="#050505" stroke="#050505"></path><path d="M365.4 516.8L357.4 365.8L203.7 524.8Z" fill="#070707" stroke="#070707"></path><path d="M564.1 1942.2L731.9 1957.2L553.1 1789.2Z" fill="#070707" stroke="#070707"></path><path d="M203.7 524.8L0 689.7L187.7 709.7Z" fill="#070707" stroke="#070707"></path><path d="M726.9 359.8L569.1 340.8L563.1 522.8Z" fill="#010101" stroke="#010101"></path><path d="M731.9 1957.2L937.6 1951.2L762.9 1753.2Z" fill="#020202" stroke="#020202"></path><path d="M1097.3 1788.2L1300 1770.2L1093.3 1598.3Z" fill="#0a0a0a" stroke="#0a0a0a"></path><path d="M569.1 340.8L357.4 365.8L563.1 522.8Z" fill="#0b0b0b" stroke="#0b0b0b"></path><path d="M203.7 524.8L0 514.8L0 689.7Z" fill="#050505" stroke="#050505"></path><path d="M1093.3 368.8L938.6 349.8L1097.3 534.8Z" fill="#0b0b0b" stroke="#0b0b0b"></path><path d="M1097.3 534.8L938.6 349.8L914.6 548.8Z" fill="#0c0c0c" stroke="#0c0c0c"></path><path d="M726.9 359.8L554.1 195.9L569.1 340.8Z" fill="#070707" stroke="#070707"></path><path d="M564.1 1942.2L546.1 2112.1L731.9 1957.2Z" fill="#0a0a0a" stroke="#0a0a0a"></path><path d="M200.7 1933.2L360.4 1963.2L374.4 1789.2Z" fill="#070707" stroke="#070707"></path><path d="M200.7 1933.2L374.4 1789.2L201.7 1769.2Z" fill="#080808" stroke="#080808"></path><path d="M1300 692.7L1300 548.8L1110.3 707.7Z" fill="#060606" stroke="#060606"></path><path d="M1300 1937.2L1300 1770.2L1097.3 1788.2Z" fill="#000000" stroke="#000000"></path><path d="M1300 364.8L1093.3 368.8L1097.3 534.8Z" fill="#080808" stroke="#080808"></path><path d="M0 1591.3L0 1767.2L175.7 1579.3Z" fill="#050505" stroke="#050505"></path><path d="M0 1929.2L200.7 1933.2L201.7 1769.2Z" fill="#060606" stroke="#060606"></path><path d="M1112.3 2111.1L1107.3 1950.2L937.6 1951.2Z" fill="#070707" stroke="#070707"></path><path d="M937.6 1951.2L1107.3 1950.2L1097.3 1788.2Z" fill="#080808" stroke="#080808"></path><path d="M169.7 339.8L0 514.8L203.7 524.8Z" fill="#0b0b0b" stroke="#0b0b0b"></path><path d="M199.7 175.9L169.7 339.8L357.4 365.8Z" fill="#0b0b0b" stroke="#0b0b0b"></path><path d="M357.4 365.8L169.7 339.8L203.7 524.8Z" fill="#020202" stroke="#020202"></path><path d="M730.9 157.9L554.1 195.9L726.9 359.8Z" fill="#0b0b0b" stroke="#0b0b0b"></path><path d="M569.1 340.8L554.1 195.9L357.4 365.8Z" fill="#020202" stroke="#020202"></path><path d="M730.9 157.9L726.9 359.8L938.6 349.8Z" fill="#020202" stroke="#020202"></path><path d="M360.4 1963.2L546.1 2112.1L564.1 1942.2Z" fill="#0b0b0b" stroke="#0b0b0b"></path><path d="M731.9 1957.2L750.9 2131.1L937.6 1951.2Z" fill="#000000" stroke="#000000"></path><path d="M369.4 2126.1L546.1 2112.1L360.4 1963.2Z" fill="#000000" stroke="#000000"></path><path d="M546.1 2112.1L750.9 2131.1L731.9 1957.2Z" fill="#0b0b0b" stroke="#0b0b0b"></path><path d="M941.6 172.9L730.9 157.9L938.6 349.8Z" fill="#080808" stroke="#080808"></path><path d="M1300 2115.1L1300 1937.2L1107.3 1950.2Z" fill="#0a0a0a" stroke="#0a0a0a"></path><path d="M1107.3 1950.2L1300 1937.2L1097.3 1788.2Z" fill="#040404" stroke="#040404"></path><path d="M546.1 2112.1L731.9 2300L750.9 2131.1Z" fill="#040404" stroke="#040404"></path><path d="M202.7 2119.1L369.4 2126.1L360.4 1963.2Z" fill="#0a0a0a" stroke="#0a0a0a"></path><path d="M202.7 2119.1L360.4 1963.2L200.7 1933.2Z" fill="#080808" stroke="#080808"></path><path d="M1300 548.8L1300 364.8L1097.3 534.8Z" fill="#080808" stroke="#080808"></path><path d="M1095.3 192.9L941.6 172.9L938.6 349.8Z" fill="#060606" stroke="#060606"></path><path d="M750.9 2131.1L922.6 2138.1L937.6 1951.2Z" fill="#050505" stroke="#050505"></path><path d="M926.6 2300L922.6 2138.1L750.9 2131.1Z" fill="#070707" stroke="#070707"></path><path d="M0 1767.2L0 1929.2L201.7 1769.2Z" fill="#080808" stroke="#080808"></path><path d="M1095.3 192.9L938.6 349.8L1093.3 368.8Z" fill="#070707" stroke="#070707"></path><path d="M390.4 0L357.4 162.9L554.1 195.9Z" fill="#000000" stroke="#000000"></path><path d="M554.1 195.9L357.4 162.9L357.4 365.8Z" fill="#010101" stroke="#010101"></path><path d="M0 174.9L0 344.8L169.7 339.8Z" fill="#050505" stroke="#050505"></path><path d="M169.7 339.8L0 344.8L0 514.8Z" fill="#070707" stroke="#070707"></path><path d="M1300 364.8L1095.3 192.9L1093.3 368.8Z" fill="#0a0a0a" stroke="#0a0a0a"></path><path d="M922.6 2138.1L1112.3 2111.1L937.6 1951.2Z" fill="#080808" stroke="#080808"></path><path d="M0 2120.1L202.7 2119.1L200.7 1933.2Z" fill="#0a0a0a" stroke="#0a0a0a"></path><path d="M357.4 162.9L199.7 175.9L357.4 365.8Z" fill="#000000" stroke="#000000"></path><path d="M541.1 2300L546.1 2112.1L388.4 2300Z" fill="#040404" stroke="#040404"></path><path d="M541.1 2300L731.9 2300L546.1 2112.1Z" fill="#000000" stroke="#000000"></path><path d="M922.6 2138.1L1107.3 2300L1112.3 2111.1Z" fill="#020202" stroke="#020202"></path><path d="M388.4 2300L546.1 2112.1L369.4 2126.1Z" fill="#000000" stroke="#000000"></path><path d="M1300 2300L1300 2115.1L1112.3 2111.1Z" fill="#040404" stroke="#040404"></path><path d="M1112.3 2111.1L1300 2115.1L1107.3 1950.2Z" fill="#020202" stroke="#020202"></path><path d="M730.9 157.9L549.1 0L554.1 195.9Z" fill="#020202" stroke="#020202"></path><path d="M357.4 162.9L185.7 0L199.7 175.9Z" fill="#000000" stroke="#000000"></path><path d="M941.6 172.9L754.9 0L730.9 157.9Z" fill="#060606" stroke="#060606"></path><path d="M944.6 0L754.9 0L941.6 172.9Z" fill="#040404" stroke="#040404"></path><path d="M754.9 0L549.1 0L730.9 157.9Z" fill="#050505" stroke="#050505"></path><path d="M0 1929.2L0 2120.1L200.7 1933.2Z" fill="#060606" stroke="#060606"></path><path d="M202.7 2119.1L388.4 2300L369.4 2126.1Z" fill="#070707" stroke="#070707"></path><path d="M1300 364.8L1300 166.9L1095.3 192.9Z" fill="#0a0a0a" stroke="#0a0a0a"></path><path d="M1095.3 192.9L944.6 0L941.6 172.9Z" fill="#020202" stroke="#020202"></path><path d="M731.9 2300L926.6 2300L750.9 2131.1Z" fill="#050505" stroke="#050505"></path><path d="M168.7 2300L388.4 2300L202.7 2119.1Z" fill="#050505" stroke="#050505"></path><path d="M185.7 0L0 174.9L199.7 175.9Z" fill="#080808" stroke="#080808"></path><path d="M199.7 175.9L0 174.9L169.7 339.8Z" fill="#080808" stroke="#080808"></path><path d="M549.1 0L390.4 0L554.1 195.9Z" fill="#020202" stroke="#020202"></path><path d="M1129.3 0L944.6 0L1095.3 192.9Z" fill="#020202" stroke="#020202"></path><path d="M926.6 2300L1107.3 2300L922.6 2138.1Z" fill="#080808" stroke="#080808"></path><path d="M1300 166.9L1129.3 0L1095.3 192.9Z" fill="#050505" stroke="#050505"></path><path d="M0 2120.1L168.7 2300L202.7 2119.1Z" fill="#070707" stroke="#070707"></path><path d="M390.4 0L185.7 0L357.4 162.9Z" fill="#060606" stroke="#060606"></path><path d="M1107.3 2300L1300 2300L1112.3 2111.1Z" fill="#020202" stroke="#020202"></path><path d="M1300 166.9L1300 0L1129.3 0Z" fill="#010101" stroke="#010101"></path><path d="M0 2120.1L0 2300L168.7 2300Z" fill="#020202" stroke="#020202"></path><path d="M185.7 0L0 0L0 174.9Z" fill="#020202" stroke="#020202"></path></g></svg>