<svg id="visual" viewBox="0 0 900 600" width="900" height="600" xmlns="http://www.w3.org/2000/svg" xmlns:xlink="http://www.w3.org/1999/xlink" version="1.1"><rect x="0" y="0" width="900" height="600" fill="#2d1f44"></rect><defs><linearGradient id="grad1_0" x1="33.3%" y1="0%" x2="100%" y2="100%"><stop offset="20%" stop-color="#000226" stop-opacity="1"></stop><stop offset="80%" stop-color="#000226" stop-opacity="1"></stop></linearGradient></defs><defs><linearGradient id="grad1_1" x1="33.3%" y1="0%" x2="100%" y2="100%"><stop offset="20%" stop-color="#000226" stop-opacity="1"></stop><stop offset="80%" stop-color="#080a2b" stop-opacity="1"></stop></linearGradient></defs><defs><linearGradient id="grad1_2" x1="33.3%" y1="0%" x2="100%" y2="100%"><stop offset="20%" stop-color="#0f1030" stop-opacity="1"></stop><stop offset="80%" stop-color="#080a2b" stop-opacity="1"></stop></linearGradient></defs><defs><linearGradient id="grad1_3" x1="33.3%" y1="0%" x2="100%" y2="100%"><stop offset="20%" stop-color="#0f1030" stop-opacity="1"></stop><stop offset="80%" stop-color="#161435" stop-opacity="1"></stop></linearGradient></defs><defs><linearGradient id="grad1_4" x1="33.3%" y1="0%" x2="100%" y2="100%"><stop offset="20%" stop-color="#1e183a" stop-opacity="1"></stop><stop offset="80%" stop-color="#161435" stop-opacity="1"></stop></linearGradient></defs><defs><linearGradient id="grad1_5" x1="33.3%" y1="0%" x2="100%" y2="100%"><stop offset="20%" stop-color="#1e183a" stop-opacity="1"></stop><stop offset="80%" stop-color="#251b3f" stop-opacity="1"></stop></linearGradient></defs><defs><linearGradient id="grad1_6" x1="33.3%" y1="0%" x2="100%" y2="100%"><stop offset="20%" stop-color="#2d1f44" stop-opacity="1"></stop><stop offset="80%" stop-color="#251b3f" stop-opacity="1"></stop></linearGradient></defs><defs><linearGradient id="grad2_0" x1="0%" y1="0%" x2="66.7%" y2="100%"><stop offset="20%" stop-color="#000226" stop-opacity="1"></stop><stop offset="80%" stop-color="#000226" stop-opacity="1"></stop></linearGradient></defs><defs><linearGradient id="grad2_1" x1="0%" y1="0%" x2="66.7%" y2="100%"><stop offset="20%" stop-color="#080a2b" stop-opacity="1"></stop><stop offset="80%" stop-color="#000226" stop-opacity="1"></stop></linearGradient></defs><defs><linearGradient id="grad2_2" x1="0%" y1="0%" x2="66.7%" y2="100%"><stop offset="20%" stop-color="#080a2b" stop-opacity="1"></stop><stop offset="80%" stop-color="#0f1030" stop-opacity="1"></stop></linearGradient></defs><defs><linearGradient id="grad2_3" x1="0%" y1="0%" x2="66.7%" y2="100%"><stop offset="20%" stop-color="#161435" stop-opacity="1"></stop><stop offset="80%" stop-color="#0f1030" stop-opacity="1"></stop></linearGradient></defs><defs><linearGradient id="grad2_4" x1="0%" y1="0%" x2="66.7%" y2="100%"><stop offset="20%" stop-color="#161435" stop-opacity="1"></stop><stop offset="80%" stop-color="#1e183a" stop-opacity="1"></stop></linearGradient></defs><defs><linearGradient id="grad2_5" x1="0%" y1="0%" x2="66.7%" y2="100%"><stop offset="20%" stop-color="#251b3f" stop-opacity="1"></stop><stop offset="80%" stop-color="#1e183a" stop-opacity="1"></stop></linearGradient></defs><defs><linearGradient id="grad2_6" x1="0%" y1="0%" x2="66.7%" y2="100%"><stop offset="20%" stop-color="#251b3f" stop-opacity="1"></stop><stop offset="80%" stop-color="#2d1f44" stop-opacity="1"></stop></linearGradient></defs><g transform="translate(900, 0)"><path d="M0 486.7C-53.2 476.4 -106.3 466.1 -141.5 435.6C-176.7 405.1 -194 354.4 -241.6 332.5C-289.1 310.6 -367 317.5 -393.8 286.1C-420.6 254.7 -396.3 185.1 -403.2 131C-410.2 77 -448.5 38.5 -486.7 0L0 0Z" fill="#291d42"></path><path d="M0 417.2C-45.6 408.4 -91.1 399.5 -121.3 373.4C-151.5 347.2 -166.3 303.8 -207.1 285C-247.8 266.2 -314.6 272.1 -337.5 245.2C-360.5 218.3 -339.7 158.6 -345.6 112.3C-351.6 66 -384.4 33 -417.2 0L0 0Z" fill="#221a3d"></path><path d="M0 347.7C-38 340.3 -75.9 332.9 -101.1 311.1C-126.2 289.3 -138.6 253.1 -172.6 237.5C-206.5 221.9 -262.1 226.8 -281.3 204.4C-300.4 181.9 -283 132.2 -288 93.6C-293 55 -320.3 27.5 -347.7 0L0 0Z" fill="#1a1638"></path><path d="M0 278.1C-30.4 272.2 -60.8 266.3 -80.9 248.9C-101 231.5 -110.9 202.5 -138 190C-165.2 177.5 -209.7 181.4 -225 163.5C-240.3 145.6 -226.4 105.8 -230.4 74.9C-234.4 44 -256.3 22 -278.1 0L0 0Z" fill="#121232"></path><path d="M0 208.6C-22.8 204.2 -45.6 199.8 -60.7 186.7C-75.7 173.6 -83.1 151.9 -103.5 142.5C-123.9 133.1 -157.3 136.1 -168.8 122.6C-180.2 109.2 -169.8 79.3 -172.8 56.2C-175.8 33 -192.2 16.5 -208.6 0L0 0Z" fill="#0c0d2d"></path><path d="M0 139.1C-15.2 136.1 -30.4 133.2 -40.4 124.5C-50.5 115.7 -55.4 101.3 -69 95C-82.6 88.7 -104.9 90.7 -112.5 81.7C-120.2 72.8 -113.2 52.9 -115.2 37.4C-117.2 22 -128.1 11 -139.1 0L0 0Z" fill="#040628"></path><path d="M0 69.5C-7.6 68.1 -15.2 66.6 -20.2 62.2C-25.2 57.9 -27.7 50.6 -34.5 47.5C-41.3 44.4 -52.4 45.4 -56.3 40.9C-60.1 36.4 -56.6 26.4 -57.6 18.7C-58.6 11 -64.1 5.5 -69.5 0L0 0Z" fill="#000226"></path></g><g transform="translate(0, 600)"><path d="M0 -486.7C57.6 -490.7 115.3 -494.6 150.4 -462.9C185.6 -431.3 198.3 -364.1 243.3 -334.9C288.4 -305.7 365.9 -314.4 389.9 -283.3C414 -252.2 384.6 -181.2 391.8 -127.3C399.1 -73.5 442.9 -36.7 486.7 0L0 0Z" fill="#291d42"></path><path d="M0 -417.2C49.4 -420.6 98.8 -423.9 128.9 -396.8C159.1 -369.7 169.9 -312.1 208.6 -287.1C247.2 -262 313.6 -269.5 334.2 -242.8C354.8 -216.2 329.7 -155.3 335.9 -109.1C342.1 -63 379.6 -31.5 417.2 0L0 0Z" fill="#221a3d"></path><path d="M0 -347.7C41.2 -350.5 82.3 -353.3 107.4 -330.7C132.6 -308.1 141.6 -260.1 173.8 -239.2C206 -218.4 261.4 -224.6 278.5 -202.4C295.7 -180.1 274.7 -129.4 279.9 -90.9C285 -52.5 316.4 -26.2 347.7 0L0 0Z" fill="#1a1638"></path><path d="M0 -278.1C32.9 -280.4 65.9 -282.6 86 -264.5C106 -246.5 113.3 -208.1 139.1 -191.4C164.8 -174.7 209.1 -179.7 222.8 -161.9C236.6 -144.1 219.8 -103.5 223.9 -72.8C228 -42 253.1 -21 278.1 0L0 0Z" fill="#121232"></path><path d="M0 -208.6C24.7 -210.3 49.4 -212 64.5 -198.4C79.5 -184.8 85 -156.1 104.3 -143.5C123.6 -131 156.8 -134.8 167.1 -121.4C177.4 -108.1 164.8 -77.6 167.9 -54.6C171 -31.5 189.8 -15.7 208.6 0L0 0Z" fill="#0c0d2d"></path><path d="M0 -139.1C16.5 -140.2 32.9 -141.3 43 -132.3C53 -123.2 56.6 -104 69.5 -95.7C82.4 -87.3 104.5 -89.8 111.4 -80.9C118.3 -72.1 109.9 -51.8 112 -36.4C114 -21 126.5 -10.5 139.1 0L0 0Z" fill="#040628"></path><path d="M0 -69.5C8.2 -70.1 16.5 -70.7 21.5 -66.1C26.5 -61.6 28.3 -52 34.8 -47.8C41.2 -43.7 52.3 -44.9 55.7 -40.5C59.1 -36 54.9 -25.9 56 -18.2C57 -10.5 63.3 -5.2 69.5 0L0 0Z" fill="#000226"></path></g></svg>