<svg id="visual" viewBox="0 0 450 900" width="450" height="900" xmlns="http://www.w3.org/2000/svg" xmlns:xlink="http://www.w3.org/1999/xlink" version="1.1"><rect x="0" y="0" width="450" height="900" fill="#010217"></rect><path d="M0 84L10.7 77.5C21.3 71 42.7 58 64.2 49.8C85.7 41.7 107.3 38.3 128.8 44.3C150.3 50.3 171.7 65.7 193 74.2C214.3 82.7 235.7 84.3 257 77C278.3 69.7 299.7 53.3 321.2 51.2C342.7 49 364.3 61 385.8 63.7C407.3 66.3 428.7 59.7 439.3 56.3L450 53L450 901L439.3 901C428.7 901 407.3 901 385.8 901C364.3 901 342.7 901 321.2 901C299.7 901 278.3 901 257 901C235.7 901 214.3 901 193 901C171.7 901 150.3 901 128.8 901C107.3 901 85.7 901 64.2 901C42.7 901 21.3 901 10.7 901L0 901Z" fill="#000226"></path><path d="M0 175L10.7 165.3C21.3 155.7 42.7 136.3 64.2 133.2C85.7 130 107.3 143 128.8 151.7C150.3 160.3 171.7 164.7 193 165.2C214.3 165.7 235.7 162.3 257 151.7C278.3 141 299.7 123 321.2 120.5C342.7 118 364.3 131 385.8 142.3C407.3 153.7 428.7 163.3 439.3 168.2L450 173L450 901L439.3 901C428.7 901 407.3 901 385.8 901C364.3 901 342.7 901 321.2 901C299.7 901 278.3 901 257 901C235.7 901 214.3 901 193 901C171.7 901 150.3 901 128.8 901C107.3 901 85.7 901 64.2 901C42.7 901 21.3 901 10.7 901L0 901Z" fill="#191235"></path><path d="M0 225L10.7 215.8C21.3 206.7 42.7 188.3 64.2 184.8C85.7 181.3 107.3 192.7 128.8 201.5C150.3 210.3 171.7 216.7 193 223.3C214.3 230 235.7 237 257 235.5C278.3 234 299.7 224 321.2 211.7C342.7 199.3 364.3 184.7 385.8 183.3C407.3 182 428.7 194 439.3 200L450 206L450 901L439.3 901C428.7 901 407.3 901 385.8 901C364.3 901 342.7 901 321.2 901C299.7 901 278.3 901 257 901C235.7 901 214.3 901 193 901C171.7 901 150.3 901 128.8 901C107.3 901 85.7 901 64.2 901C42.7 901 21.3 901 10.7 901L0 901Z" fill="#341943"></path><path d="M0 270L10.7 273.2C21.3 276.3 42.7 282.7 64.2 285C85.7 287.3 107.3 285.7 128.8 280.7C150.3 275.7 171.7 267.3 193 265.7C214.3 264 235.7 269 257 269.5C278.3 270 299.7 266 321.2 260.5C342.7 255 364.3 248 385.8 248.3C407.3 248.7 428.7 256.3 439.3 260.2L450 264L450 901L439.3 901C428.7 901 407.3 901 385.8 901C364.3 901 342.7 901 321.2 901C299.7 901 278.3 901 257 901C235.7 901 214.3 901 193 901C171.7 901 150.3 901 128.8 901C107.3 901 85.7 901 64.2 901C42.7 901 21.3 901 10.7 901L0 901Z" fill="#4f204d"></path><path d="M0 315L10.7 316C21.3 317 42.7 319 64.2 325C85.7 331 107.3 341 128.8 347.5C150.3 354 171.7 357 193 360.2C214.3 363.3 235.7 366.7 257 363.2C278.3 359.7 299.7 349.3 321.2 342.3C342.7 335.3 364.3 331.7 385.8 329.3C407.3 327 428.7 326 439.3 325.5L450 325L450 901L439.3 901C428.7 901 407.3 901 385.8 901C364.3 901 342.7 901 321.2 901C299.7 901 278.3 901 257 901C235.7 901 214.3 901 193 901C171.7 901 150.3 901 128.8 901C107.3 901 85.7 901 64.2 901C42.7 901 21.3 901 10.7 901L0 901Z" fill="#6b2754"></path><path d="M0 431L10.7 428.7C21.3 426.3 42.7 421.7 64.2 424.2C85.7 426.7 107.3 436.3 128.8 438.3C150.3 440.3 171.7 434.7 193 425C214.3 415.3 235.7 401.7 257 398.5C278.3 395.3 299.7 402.7 321.2 406.2C342.7 409.7 364.3 409.3 385.8 405C407.3 400.7 428.7 392.3 439.3 388.2L450 384L450 901L439.3 901C428.7 901 407.3 901 385.8 901C364.3 901 342.7 901 321.2 901C299.7 901 278.3 901 257 901C235.7 901 214.3 901 193 901C171.7 901 150.3 901 128.8 901C107.3 901 85.7 901 64.2 901C42.7 901 21.3 901 10.7 901L0 901Z" fill="#872f58"></path><path d="M0 473L10.7 468.2C21.3 463.3 42.7 453.7 64.2 460.7C85.7 467.7 107.3 491.3 128.8 500.5C150.3 509.7 171.7 504.3 193 499.2C214.3 494 235.7 489 257 482C278.3 475 299.7 466 321.2 463C342.7 460 364.3 463 385.8 466.3C407.3 469.7 428.7 473.3 439.3 475.2L450 477L450 901L439.3 901C428.7 901 407.3 901 385.8 901C364.3 901 342.7 901 321.2 901C299.7 901 278.3 901 257 901C235.7 901 214.3 901 193 901C171.7 901 150.3 901 128.8 901C107.3 901 85.7 901 64.2 901C42.7 901 21.3 901 10.7 901L0 901Z" fill="#a23a59"></path><path d="M0 570L10.7 566.7C21.3 563.3 42.7 556.7 64.2 558.7C85.7 560.7 107.3 571.3 128.8 567.8C150.3 564.3 171.7 546.7 193 541.7C214.3 536.7 235.7 544.3 257 551.7C278.3 559 299.7 566 321.2 572.3C342.7 578.7 364.3 584.3 385.8 576.2C407.3 568 428.7 546 439.3 535L450 524L450 901L439.3 901C428.7 901 407.3 901 385.8 901C364.3 901 342.7 901 321.2 901C299.7 901 278.3 901 257 901C235.7 901 214.3 901 193 901C171.7 901 150.3 901 128.8 901C107.3 901 85.7 901 64.2 901C42.7 901 21.3 901 10.7 901L0 901Z" fill="#ba4856"></path><path d="M0 611L10.7 611C21.3 611 42.7 611 64.2 606.3C85.7 601.7 107.3 592.3 128.8 598.7C150.3 605 171.7 627 193 627.3C214.3 627.7 235.7 606.3 257 604C278.3 601.7 299.7 618.3 321.2 629.2C342.7 640 364.3 645 385.8 642C407.3 639 428.7 628 439.3 622.5L450 617L450 901L439.3 901C428.7 901 407.3 901 385.8 901C364.3 901 342.7 901 321.2 901C299.7 901 278.3 901 257 901C235.7 901 214.3 901 193 901C171.7 901 150.3 901 128.8 901C107.3 901 85.7 901 64.2 901C42.7 901 21.3 901 10.7 901L0 901Z" fill="#cf5a52"></path><path d="M0 727L10.7 726.7C21.3 726.3 42.7 725.7 64.2 722.3C85.7 719 107.3 713 128.8 700.5C150.3 688 171.7 669 193 666.5C214.3 664 235.7 678 257 690.3C278.3 702.7 299.7 713.3 321.2 718.3C342.7 723.3 364.3 722.7 385.8 715C407.3 707.3 428.7 692.7 439.3 685.3L450 678L450 901L439.3 901C428.7 901 407.3 901 385.8 901C364.3 901 342.7 901 321.2 901C299.7 901 278.3 901 257 901C235.7 901 214.3 901 193 901C171.7 901 150.3 901 128.8 901C107.3 901 85.7 901 64.2 901C42.7 901 21.3 901 10.7 901L0 901Z" fill="#e06f4b"></path><path d="M0 771L10.7 771.8C21.3 772.7 42.7 774.3 64.2 777.7C85.7 781 107.3 786 128.8 777.8C150.3 769.7 171.7 748.3 193 740.2C214.3 732 235.7 737 257 739.5C278.3 742 299.7 742 321.2 739C342.7 736 364.3 730 385.8 733.7C407.3 737.3 428.7 750.7 439.3 757.3L450 764L450 901L439.3 901C428.7 901 407.3 901 385.8 901C364.3 901 342.7 901 321.2 901C299.7 901 278.3 901 257 901C235.7 901 214.3 901 193 901C171.7 901 150.3 901 128.8 901C107.3 901 85.7 901 64.2 901C42.7 901 21.3 901 10.7 901L0 901Z" fill="#ec8644"></path><path d="M0 800L10.7 802.8C21.3 805.7 42.7 811.3 64.2 816.2C85.7 821 107.3 825 128.8 827.5C150.3 830 171.7 831 193 828.8C214.3 826.7 235.7 821.3 257 824.8C278.3 828.3 299.7 840.7 321.2 849.5C342.7 858.3 364.3 863.7 385.8 860C407.3 856.3 428.7 843.7 439.3 837.3L450 831L450 901L439.3 901C428.7 901 407.3 901 385.8 901C364.3 901 342.7 901 321.2 901C299.7 901 278.3 901 257 901C235.7 901 214.3 901 193 901C171.7 901 150.3 901 128.8 901C107.3 901 85.7 901 64.2 901C42.7 901 21.3 901 10.7 901L0 901Z" fill="#f39f3e"></path></svg>