<svg id="visual" viewBox="0 0 900 600" width="900" height="600" xmlns="http://www.w3.org/2000/svg" xmlns:xlink="http://www.w3.org/1999/xlink" version="1.1"><path d="M0 61L30 68C60 75 120 89 180 90C240 91 300 79 360 79C420 79 480 91 540 89C600 87 660 71 720 63C780 55 840 55 870 55L900 55L900 0L870 0C840 0 780 0 720 0C660 0 600 0 540 0C480 0 420 0 360 0C300 0 240 0 180 0C120 0 60 0 30 0L0 0Z" fill="#030412"></path><path d="M0 253L30 258C60 263 120 273 180 262C240 251 300 219 360 201C420 183 480 179 540 181C600 183 660 191 720 196C780 201 840 203 870 204L900 205L900 53L870 53C840 53 780 53 720 61C660 69 600 85 540 87C480 89 420 77 360 77C300 77 240 89 180 88C120 87 60 73 30 66L0 59Z" fill="#030414"></path><path d="M0 307L30 311C60 315 120 323 180 310C240 297 300 263 360 248C420 233 480 237 540 247C600 257 660 273 720 278C780 283 840 277 870 274L900 271L900 203L870 202C840 201 780 199 720 194C660 189 600 181 540 179C480 177 420 181 360 199C300 217 240 249 180 260C120 271 60 261 30 256L0 251Z" fill="#030515"></path><path d="M0 457L30 457C60 457 120 457 180 448C240 439 300 421 360 411C420 401 480 399 540 403C600 407 660 417 720 425C780 433 840 439 870 442L900 445L900 269L870 272C840 275 780 281 720 276C660 271 600 255 540 245C480 235 420 231 360 246C300 261 240 295 180 308C120 321 60 313 30 309L0 305Z" fill="#080c22"></path><path d="M0 517L30 522C60 527 120 537 180 539C240 541 300 535 360 530C420 525 480 521 540 520C600 519 660 521 720 529C780 537 840 551 870 558L900 565L900 443L870 440C840 437 780 431 720 423C660 415 600 405 540 401C480 397 420 399 360 409C300 419 240 437 180 446C120 455 60 455 30 455L0 455Z" fill="#06163b"></path><path d="M0 601L30 601C60 601 120 601 180 601C240 601 300 601 360 601C420 601 480 601 540 601C600 601 660 601 720 601C780 601 840 601 870 601L900 601L900 563L870 556C840 549 780 535 720 527C660 519 600 517 540 518C480 519 420 523 360 528C300 533 240 539 180 537C120 535 60 525 30 520L0 515Z" fill="#001d55"></path></svg>