<svg id="visual" viewBox="0 0 900 600" width="900" height="600" xmlns="http://www.w3.org/2000/svg" xmlns:xlink="http://www.w3.org/1999/xlink" version="1.1"><path d="M0 115L37.5 120C75 125 150 135 225 153C300 171 375 197 450 199C525 201 600 179 675 162C750 145 825 133 862.5 127L900 121L900 0L862.5 0C825 0 750 0 675 0C600 0 525 0 450 0C375 0 300 0 225 0C150 0 75 0 37.5 0L0 0Z" fill="#000226"></path><path d="M0 355L37.5 349C75 343 150 331 225 331C300 331 375 343 450 345C525 347 600 339 675 339C750 339 825 347 862.5 351L900 355L900 119L862.5 125C825 131 750 143 675 160C600 177 525 199 450 197C375 195 300 169 225 151C150 133 75 123 37.5 118L0 113Z" fill="#010732"></path><path d="M0 457L37.5 452C75 447 150 437 225 443C300 449 375 471 450 468C525 465 600 437 675 428C750 419 825 429 862.5 434L900 439L900 353L862.5 349C825 345 750 337 675 337C600 337 525 345 450 343C375 341 300 329 225 329C150 329 75 341 37.5 347L0 353Z" fill="#000b3e"></path><path d="M0 559L37.5 550C75 541 150 523 225 522C300 521 375 537 450 538C525 539 600 525 675 517C750 509 825 507 862.5 506L900 505L900 437L862.5 432C825 427 750 417 675 426C600 435 525 463 450 466C375 469 300 447 225 441C150 435 75 445 37.5 450L0 455Z" fill="#010d4a"></path><path d="M0 601L37.5 601C75 601 150 601 225 601C300 601 375 601 450 601C525 601 600 601 675 601C750 601 825 601 862.5 601L900 601L900 503L862.5 504C825 505 750 507 675 515C600 523 525 537 450 536C375 535 300 519 225 520C150 521 75 539 37.5 548L0 557Z" fill="#080c56"></path></svg>