<svg id="visual" viewBox="0 0 1300 633" width="1300" height="633" xmlns="http://www.w3.org/2000/svg" xmlns:xlink="http://www.w3.org/1999/xlink" version="1.1"><rect x="0" y="0" width="1300" height="633" fill="#000000"></rect><path d="M0 89L59 114L118 77L177 63L236 71L295 67L355 92L414 65L473 95L532 109L591 71L650 98L709 69L768 81L827 90L886 64L945 104L1005 76L1064 78L1123 67L1182 100L1241 92L1300 107L1300 0L1241 0L1182 0L1123 0L1064 0L1005 0L945 0L886 0L827 0L768 0L709 0L650 0L591 0L532 0L473 0L414 0L355 0L295 0L236 0L177 0L118 0L59 0L0 0Z" fill="#888277"></path><path d="M0 58L59 74L118 77L177 47L236 93L295 84L355 58L414 70L473 88L532 87L591 52L650 45L709 85L768 59L827 63L886 89L945 57L1005 82L1064 85L1123 50L1182 78L1241 76L1300 98L1300 0L1241 0L1182 0L1123 0L1064 0L1005 0L945 0L886 0L827 0L768 0L709 0L650 0L591 0L532 0L473 0L414 0L355 0L295 0L236 0L177 0L118 0L59 0L0 0Z" fill="#9f9a91"></path><path d="M0 72L59 41L118 79L177 41L236 67L295 73L355 54L414 38L473 46L532 59L591 51L650 57L709 47L768 36L827 58L886 72L945 71L1005 76L1064 48L1123 81L1182 53L1241 38L1300 53L1300 0L1241 0L1182 0L1123 0L1064 0L1005 0L945 0L886 0L827 0L768 0L709 0L650 0L591 0L532 0L473 0L414 0L355 0L295 0L236 0L177 0L118 0L59 0L0 0Z" fill="#b6b2ab"></path><path d="M0 44L59 40L118 29L177 30L236 43L295 39L355 44L414 25L473 51L532 48L591 46L650 58L709 54L768 32L827 54L886 38L945 40L1005 42L1064 23L1123 63L1182 53L1241 45L1300 23L1300 0L1241 0L1182 0L1123 0L1064 0L1005 0L945 0L886 0L827 0L768 0L709 0L650 0L591 0L532 0L473 0L414 0L355 0L295 0L236 0L177 0L118 0L59 0L0 0Z" fill="#ceccc7"></path><path d="M0 38L59 32L118 43L177 20L236 48L295 48L355 45L414 38L473 25L532 39L591 39L650 26L709 31L768 40L827 29L886 31L945 29L1005 24L1064 30L1123 33L1182 18L1241 40L1300 16L1300 0L1241 0L1182 0L1123 0L1064 0L1005 0L945 0L886 0L827 0L768 0L709 0L650 0L591 0L532 0L473 0L414 0L355 0L295 0L236 0L177 0L118 0L59 0L0 0Z" fill="#e6e5e3"></path><path d="M0 10L59 31L118 24L177 30L236 24L295 11L355 23L414 10L473 21L532 17L591 15L650 27L709 17L768 25L827 11L886 30L945 18L1005 24L1064 20L1123 20L1182 6L1241 27L1300 25L1300 0L1241 0L1182 0L1123 0L1064 0L1005 0L945 0L886 0L827 0L768 0L709 0L650 0L591 0L532 0L473 0L414 0L355 0L295 0L236 0L177 0L118 0L59 0L0 0Z" fill="#ffffff"></path></svg>