<svg id="visual" viewBox="0 0 1300 633" width="1300" height="633" xmlns="http://www.w3.org/2000/svg" xmlns:xlink="http://www.w3.org/1999/xlink" version="1.1"><rect x="0" y="0" width="1300" height="633" fill="#000000"></rect><path d="M0 524L62 530L124 525L186 560L248 571L310 555L371 538L433 570L495 558L557 550L619 554L681 538L743 579L805 553L867 572L929 582L990 544L1052 560L1114 526L1176 562L1238 575L1300 534L1300 634L1238 634L1176 634L1114 634L1052 634L990 634L929 634L867 634L805 634L743 634L681 634L619 634L557 634L495 634L433 634L371 634L310 634L248 634L186 634L124 634L62 634L0 634Z" fill="#888277"></path><path d="M0 569L62 546L124 568L186 559L248 581L310 575L371 583L433 560L495 545L557 546L619 558L681 571L743 555L805 587L867 551L929 584L990 561L1052 593L1114 558L1176 592L1238 541L1300 592L1300 634L1238 634L1176 634L1114 634L1052 634L990 634L929 634L867 634L805 634L743 634L681 634L619 634L557 634L495 634L433 634L371 634L310 634L248 634L186 634L124 634L62 634L0 634Z" fill="#a5a097"></path><path d="M0 573L62 559L124 600L186 587L248 564L310 604L371 591L433 575L495 576L557 599L619 560L681 581L743 569L805 603L867 562L929 583L990 588L1052 569L1114 573L1176 573L1238 581L1300 591L1300 634L1238 634L1176 634L1114 634L1052 634L990 634L929 634L867 634L805 634L743 634L681 634L619 634L557 634L495 634L433 634L371 634L310 634L248 634L186 634L124 634L62 634L0 634Z" fill="#c2bfb9"></path><path d="M0 614L62 605L124 589L186 592L248 589L310 599L371 581L433 586L495 586L557 603L619 600L681 601L743 585L805 599L867 608L929 592L990 614L1052 607L1114 589L1176 588L1238 614L1300 580L1300 634L1238 634L1176 634L1114 634L1052 634L990 634L929 634L867 634L805 634L743 634L681 634L619 634L557 634L495 634L433 634L371 634L310 634L248 634L186 634L124 634L62 634L0 634Z" fill="#e0dfdb"></path><path d="M0 609L62 610L124 597L186 610L248 599L310 619L371 605L433 605L495 622L557 609L619 606L681 611L743 615L805 607L867 616L929 616L990 610L1052 610L1114 608L1176 615L1238 601L1300 599L1300 634L1238 634L1176 634L1114 634L1052 634L990 634L929 634L867 634L805 634L743 634L681 634L619 634L557 634L495 634L433 634L371 634L310 634L248 634L186 634L124 634L62 634L0 634Z" fill="#ffffff"></path></svg>