<svg id="visual" viewBox="0 0 1300 45" width="1300" height="45" xmlns="http://www.w3.org/2000/svg" xmlns:xlink="http://www.w3.org/1999/xlink" version="1.1"><rect x="0" y="0" width="1300" height="45" fill="#deb887"></rect><path d="M0 22L59 15L118 25L177 28L236 26L295 27L355 21L414 28L473 20L532 17L591 26L650 19L709 27L768 24L827 21L886 28L945 18L1005 25L1064 24L1123 27L1182 19L1241 21L1300 17L1300 46L1241 46L1182 46L1123 46L1064 46L1005 46L945 46L886 46L827 46L768 46L709 46L650 46L591 46L532 46L473 46L414 46L355 46L295 46L236 46L177 46L118 46L59 46L0 46Z" fill="#bf9e72"></path><path d="M0 29L59 25L118 25L177 32L236 21L295 23L355 29L414 26L473 22L532 22L591 31L650 33L709 23L768 29L827 28L886 22L945 30L1005 23L1064 23L1123 31L1182 24L1241 25L1300 19L1300 46L1241 46L1182 46L1123 46L1064 46L1005 46L945 46L886 46L827 46L768 46L709 46L650 46L591 46L532 46L473 46L414 46L355 46L295 46L236 46L177 46L118 46L59 46L0 46Z" fill="#cdb08d"></path><path d="M0 26L59 34L118 24L177 34L236 27L295 26L355 30L414 34L473 32L532 29L591 31L650 30L709 32L768 35L827 29L886 26L945 26L1005 25L1064 32L1123 24L1182 31L1241 34L1300 31L1300 46L1241 46L1182 46L1123 46L1064 46L1005 46L945 46L886 46L827 46L768 46L709 46L650 46L591 46L532 46L473 46L414 46L355 46L295 46L236 46L177 46L118 46L59 46L0 46Z" fill="#dbc3a9"></path><path d="M0 33L59 34L118 37L177 36L236 33L295 34L355 33L414 38L473 31L532 32L591 32L650 29L709 30L768 36L827 30L886 34L945 34L1005 33L1064 38L1123 28L1182 30L1241 33L1300 38L1300 46L1241 46L1182 46L1123 46L1064 46L1005 46L945 46L886 46L827 46L768 46L709 46L650 46L591 46L532 46L473 46L414 46L355 46L295 46L236 46L177 46L118 46L59 46L0 46Z" fill="#e7d7c5"></path><path d="M0 34L59 36L118 33L177 39L236 32L295 32L355 33L414 34L473 37L532 34L591 34L650 37L709 36L768 34L827 37L886 36L945 37L1005 38L1064 36L1123 35L1182 39L1241 34L1300 40L1300 46L1241 46L1182 46L1123 46L1064 46L1005 46L945 46L886 46L827 46L768 46L709 46L650 46L591 46L532 46L473 46L414 46L355 46L295 46L236 46L177 46L118 46L59 46L0 46Z" fill="#f3ebe2"></path><path d="M0 41L59 36L118 38L177 36L236 38L295 41L355 38L414 41L473 38L532 40L591 40L650 37L709 40L768 37L827 41L886 36L945 39L1005 38L1064 39L1123 39L1182 42L1241 37L1300 38L1300 46L1241 46L1182 46L1123 46L1064 46L1005 46L945 46L886 46L827 46L768 46L709 46L650 46L591 46L532 46L473 46L414 46L355 46L295 46L236 46L177 46L118 46L59 46L0 46Z" fill="#ffffff"></path></svg>