<svg id="visual" viewBox="0 0 1300 633" width="1300" height="633" xmlns="http://www.w3.org/2000/svg" xmlns:xlink="http://www.w3.org/1999/xlink" version="1.1"><rect x="0" y="0" width="1300" height="633" fill="#deb887"></rect><path d="M0 612L100 607L200 607L300 585L400 596L500 607L600 601L700 608L800 589L900 584L1000 602L1100 579L1200 609L1300 609L1300 634L1200 634L1100 634L1000 634L900 634L800 634L700 634L600 634L500 634L400 634L300 634L200 634L100 634L0 634Z" fill="#c3a378"></path><path d="M0 593L100 615L200 602L300 614L400 598L500 592L600 601L700 612L800 602L900 610L1000 603L1100 614L1200 603L1300 605L1300 634L1200 634L1100 634L1000 634L900 634L800 634L700 634L600 634L500 634L400 634L300 634L200 634L100 634L0 634Z" fill="#e3d0ba"></path><path d="M0 615L100 619L200 624L300 626L400 605L500 624L600 607L700 625L800 606L900 627L1000 619L1100 621L1200 618L1300 625L1300 634L1200 634L1100 634L1000 634L900 634L800 634L700 634L600 634L500 634L400 634L300 634L200 634L100 634L0 634Z" fill="#ffffff"></path></svg>