<svg id="visual" viewBox="0 0 1300 633" width="1300" height="633" xmlns="http://www.w3.org/2000/svg" xmlns:xlink="http://www.w3.org/1999/xlink" version="1.1"><g stroke-width="1" stroke-linejoin="bevel"><path d="M673 346.8L714 300.8L579 329.2Z" fill="#edc48f" stroke="#edc48f"></path><path d="M594 76.6L481 206.2L579 329.2Z" fill="#edc48f" stroke="#edc48f"></path><path d="M579 329.2L536 403.8L673 346.8Z" fill="#e5be8b" stroke="#e5be8b"></path><path d="M594 76.6L579 329.2L714 300.8Z" fill="#e0b988" stroke="#e0b988"></path><path d="M579 329.2L450 299.2L536 403.8Z" fill="#e9c18d" stroke="#e9c18d"></path><path d="M481 206.2L450 299.2L579 329.2Z" fill="#edc48f" stroke="#edc48f"></path><path d="M714 300.8L824 206.6L762 217.2Z" fill="#ebc28e" stroke="#ebc28e"></path><path d="M762 217.2L594 76.6L714 300.8Z" fill="#e0b988" stroke="#e0b988"></path><path d="M885 204.2L824 206.6L867 401.8Z" fill="#e9c18d" stroke="#e9c18d"></path><path d="M649 51.6L594 76.6L762 217.2Z" fill="#e3bc8a" stroke="#e3bc8a"></path><path d="M594 76.6L440 175.6L481 206.2Z" fill="#edc48f" stroke="#edc48f"></path><path d="M481 206.2L440 175.6L450 299.2Z" fill="#e5be8b" stroke="#e5be8b"></path><path d="M752 0L649 51.6L762 217.2Z" fill="#e2bb89" stroke="#e2bb89"></path><path d="M867 401.8L824 206.6L714 300.8Z" fill="#efc590" stroke="#efc590"></path><path d="M752 0L648 0L649 51.6Z" fill="#edc48f" stroke="#edc48f"></path><path d="M859 492.4L867 401.8L673 346.8Z" fill="#f1c791" stroke="#f1c791"></path><path d="M673 346.8L867 401.8L714 300.8Z" fill="#e3bc8a" stroke="#e3bc8a"></path><path d="M752 0L762 217.2L824 206.6Z" fill="#e7bf8c" stroke="#e7bf8c"></path><path d="M649 51.6L648 0L594 76.6Z" fill="#e0b988" stroke="#e0b988"></path><path d="M594 76.6L460 0L440 175.6Z" fill="#e9c18d" stroke="#e9c18d"></path><path d="M359 483.4L497 525.4L536 403.8Z" fill="#e9c18d" stroke="#e9c18d"></path><path d="M536 403.8L569 567.4L673 346.8Z" fill="#deb887" stroke="#deb887"></path><path d="M333 314.2L365 373.8L450 299.2Z" fill="#e0b988" stroke="#e0b988"></path><path d="M450 299.2L365 373.8L536 403.8Z" fill="#efc590" stroke="#efc590"></path><path d="M871 0L752 0L824 206.6Z" fill="#edc48f" stroke="#edc48f"></path><path d="M497 525.4L569 567.4L536 403.8Z" fill="#ebc28e" stroke="#ebc28e"></path><path d="M440 175.6L333 314.2L450 299.2Z" fill="#e5be8b" stroke="#e5be8b"></path><path d="M827 538.4L859 492.4L673 346.8Z" fill="#deb887" stroke="#deb887"></path><path d="M973 118.6L934 145.6L1084 222.2Z" fill="#efc590" stroke="#efc590"></path><path d="M934 145.6L885 204.2L1084 222.2Z" fill="#efc590" stroke="#efc590"></path><path d="M885 204.2L934 145.6L824 206.6Z" fill="#e3bc8a" stroke="#e3bc8a"></path><path d="M569 567.4L827 538.4L673 346.8Z" fill="#e0b988" stroke="#e0b988"></path><path d="M648 0L460 0L594 76.6Z" fill="#ebc28e" stroke="#ebc28e"></path><path d="M440 175.6L229 62.6L333 314.2Z" fill="#e9c18d" stroke="#e9c18d"></path><path d="M460 0L423 0L440 175.6Z" fill="#e2bb89" stroke="#e2bb89"></path><path d="M328 448.8L359 483.4L365 373.8Z" fill="#e5be8b" stroke="#e5be8b"></path><path d="M365 373.8L359 483.4L536 403.8Z" fill="#e2bb89" stroke="#e2bb89"></path><path d="M515 633L580 633L569 567.4Z" fill="#e0b988" stroke="#e0b988"></path><path d="M333 314.2L328 448.8L365 373.8Z" fill="#e2bb89" stroke="#e2bb89"></path><path d="M934 145.6L871 0L824 206.6Z" fill="#e9c18d" stroke="#e9c18d"></path><path d="M515 633L569 567.4L497 525.4Z" fill="#f1c791" stroke="#f1c791"></path><path d="M569 567.4L783 633L827 538.4Z" fill="#ebc28e" stroke="#ebc28e"></path><path d="M1019 419.8L885 204.2L867 401.8Z" fill="#ebc28e" stroke="#ebc28e"></path><path d="M934 145.6L973 118.6L871 0Z" fill="#e9c18d" stroke="#e9c18d"></path><path d="M372 633L515 633L497 525.4Z" fill="#deb887" stroke="#deb887"></path><path d="M580 633L783 633L569 567.4Z" fill="#e2bb89" stroke="#e2bb89"></path><path d="M964 633L1005 439.4L859 492.4Z" fill="#e5be8b" stroke="#e5be8b"></path><path d="M872 633L859 492.4L827 538.4Z" fill="#e0b988" stroke="#e0b988"></path><path d="M859 492.4L1005 439.4L867 401.8Z" fill="#deb887" stroke="#deb887"></path><path d="M1005 439.4L1019 419.8L867 401.8Z" fill="#e9c18d" stroke="#e9c18d"></path><path d="M783 633L872 633L827 538.4Z" fill="#edc48f" stroke="#edc48f"></path><path d="M1005 439.4L1127 525.4L1019 419.8Z" fill="#edc48f" stroke="#edc48f"></path><path d="M423 0L301 0L440 175.6Z" fill="#ebc28e" stroke="#ebc28e"></path><path d="M125 497.4L278 579.4L328 448.8Z" fill="#f1c791" stroke="#f1c791"></path><path d="M1094 194.6L990 0L973 118.6Z" fill="#e9c18d" stroke="#e9c18d"></path><path d="M973 118.6L990 0L871 0Z" fill="#e7bf8c" stroke="#e7bf8c"></path><path d="M278 579.4L372 633L359 483.4Z" fill="#efc590" stroke="#efc590"></path><path d="M359 483.4L372 633L497 525.4Z" fill="#e3bc8a" stroke="#e3bc8a"></path><path d="M1019 419.8L1084 222.2L885 204.2Z" fill="#ebc28e" stroke="#ebc28e"></path><path d="M301 0L229 62.6L440 175.6Z" fill="#e7bf8c" stroke="#e7bf8c"></path><path d="M328 448.8L278 579.4L359 483.4Z" fill="#deb887" stroke="#deb887"></path><path d="M1121 247.2L1094 194.6L1084 222.2Z" fill="#ebc28e" stroke="#ebc28e"></path><path d="M1084 222.2L1094 194.6L973 118.6Z" fill="#e7bf8c" stroke="#e7bf8c"></path><path d="M139 392.8L328 448.8L333 314.2Z" fill="#ebc28e" stroke="#ebc28e"></path><path d="M1019 419.8L1121 247.2L1084 222.2Z" fill="#e9c18d" stroke="#e9c18d"></path><path d="M872 633L964 633L859 492.4Z" fill="#e5be8b" stroke="#e5be8b"></path><path d="M1019 419.8L1208 322.8L1121 247.2Z" fill="#ebc28e" stroke="#ebc28e"></path><path d="M229 62.6L136 181.6L333 314.2Z" fill="#ebc28e" stroke="#ebc28e"></path><path d="M136 181.6L139 392.8L333 314.2Z" fill="#edc48f" stroke="#edc48f"></path><path d="M125 497.4L252 633L278 579.4Z" fill="#f1c791" stroke="#f1c791"></path><path d="M278 579.4L252 633L372 633Z" fill="#e5be8b" stroke="#e5be8b"></path><path d="M229 62.6L164 0L136 181.6Z" fill="#efc590" stroke="#efc590"></path><path d="M301 0L164 0L229 62.6Z" fill="#e3bc8a" stroke="#e3bc8a"></path><path d="M964 633L1127 525.4L1005 439.4Z" fill="#deb887" stroke="#deb887"></path><path d="M0 221.2L79 270.2L136 181.6Z" fill="#e7bf8c" stroke="#e7bf8c"></path><path d="M136 181.6L79 270.2L139 392.8Z" fill="#e9c18d" stroke="#e9c18d"></path><path d="M139 392.8L125 497.4L328 448.8Z" fill="#e5be8b" stroke="#e5be8b"></path><path d="M0 355.8L125 497.4L139 392.8Z" fill="#deb887" stroke="#deb887"></path><path d="M1127 525.4L1208 322.8L1019 419.8Z" fill="#e7bf8c" stroke="#e7bf8c"></path><path d="M1121 247.2L1300 129.6L1094 194.6Z" fill="#f1c791" stroke="#f1c791"></path><path d="M1094 194.6L1242 0L990 0Z" fill="#e7bf8c" stroke="#e7bf8c"></path><path d="M964 633L1151 633L1127 525.4Z" fill="#deb887" stroke="#deb887"></path><path d="M1127 525.4L1300 436.8L1208 322.8Z" fill="#deb887" stroke="#deb887"></path><path d="M0 61.6L0 221.2L136 181.6Z" fill="#ebc28e" stroke="#ebc28e"></path><path d="M79 270.2L0 355.8L139 392.8Z" fill="#e3bc8a" stroke="#e3bc8a"></path><path d="M0 221.2L0 355.8L79 270.2Z" fill="#e0b988" stroke="#e0b988"></path><path d="M0 513.4L91 633L125 497.4Z" fill="#deb887" stroke="#deb887"></path><path d="M125 497.4L91 633L252 633Z" fill="#f1c791" stroke="#f1c791"></path><path d="M1300 436.8L1300 236.2L1208 322.8Z" fill="#e7bf8c" stroke="#e7bf8c"></path><path d="M1208 322.8L1300 236.2L1121 247.2Z" fill="#e5be8b" stroke="#e5be8b"></path><path d="M1300 129.6L1242 0L1094 194.6Z" fill="#f1c791" stroke="#f1c791"></path><path d="M164 0L0 61.6L136 181.6Z" fill="#e9c18d" stroke="#e9c18d"></path><path d="M1300 236.2L1300 129.6L1121 247.2Z" fill="#efc590" stroke="#efc590"></path><path d="M0 355.8L0 513.4L125 497.4Z" fill="#f1c791" stroke="#f1c791"></path><path d="M1300 458.4L1300 436.8L1127 525.4Z" fill="#e0b988" stroke="#e0b988"></path><path d="M1300 633L1300 458.4L1127 525.4Z" fill="#edc48f" stroke="#edc48f"></path><path d="M164 0L0 0L0 61.6Z" fill="#e9c18d" stroke="#e9c18d"></path><path d="M1300 129.6L1300 0L1242 0Z" fill="#efc590" stroke="#efc590"></path><path d="M0 513.4L0 633L91 633Z" fill="#e0b988" stroke="#e0b988"></path><path d="M1151 633L1300 633L1127 525.4Z" fill="#deb887" stroke="#deb887"></path></g></svg>