<svg id="visual" viewBox="0 0 1300 633" width="1300" height="633" xmlns="http://www.w3.org/2000/svg" xmlns:xlink="http://www.w3.org/1999/xlink" version="1.1"><g stroke-width="1" stroke-linejoin="bevel"><path d="M594 305.8L466 251.2L588 384.8Z" fill="#edc48f" stroke="#edc48f"></path><path d="M466 251.2L468 435.4L588 384.8Z" fill="#f1c791" stroke="#f1c791"></path><path d="M466 251.2L363 333.8L468 435.4Z" fill="#edc48f" stroke="#edc48f"></path><path d="M594 305.8L549 185.6L466 251.2Z" fill="#deb887" stroke="#deb887"></path><path d="M468 435.4L571 506.4L588 384.8Z" fill="#f1c791" stroke="#f1c791"></path><path d="M466 251.2L350 226.2L363 333.8Z" fill="#e3bc8a" stroke="#e3bc8a"></path><path d="M442 101.6L350 226.2L466 251.2Z" fill="#e7bf8c" stroke="#e7bf8c"></path><path d="M350 226.2L340 239.2L363 333.8Z" fill="#e9c18d" stroke="#e9c18d"></path><path d="M738 452.8L687 228.2L594 305.8Z" fill="#e0b988" stroke="#e0b988"></path><path d="M594 305.8L687 228.2L549 185.6Z" fill="#deb887" stroke="#deb887"></path><path d="M738 452.8L594 305.8L588 384.8Z" fill="#ebc28e" stroke="#ebc28e"></path><path d="M584 74.6L442 101.6L549 185.6Z" fill="#e2bb89" stroke="#e2bb89"></path><path d="M549 185.6L442 101.6L466 251.2Z" fill="#e5be8b" stroke="#e5be8b"></path><path d="M153 100.6L176 301.2L340 239.2Z" fill="#f1c791" stroke="#f1c791"></path><path d="M571 506.4L738 452.8L588 384.8Z" fill="#efc590" stroke="#efc590"></path><path d="M724 180.6L710 179.2L687 228.2Z" fill="#e0b988" stroke="#e0b988"></path><path d="M687 228.2L710 179.2L549 185.6Z" fill="#edc48f" stroke="#edc48f"></path><path d="M176 301.2L254 413.8L363 333.8Z" fill="#e2bb89" stroke="#e2bb89"></path><path d="M363 333.8L254 413.8L468 435.4Z" fill="#e9c18d" stroke="#e9c18d"></path><path d="M468 435.4L496 633L571 506.4Z" fill="#ebc28e" stroke="#ebc28e"></path><path d="M975 320.8L724 180.6L687 228.2Z" fill="#e2bb89" stroke="#e2bb89"></path><path d="M710 179.2L584 74.6L549 185.6Z" fill="#ebc28e" stroke="#ebc28e"></path><path d="M582 0L584 74.6L718 0Z" fill="#e7bf8c" stroke="#e7bf8c"></path><path d="M453 633L496 633L468 435.4Z" fill="#e2bb89" stroke="#e2bb89"></path><path d="M571 506.4L722 583.4L738 452.8Z" fill="#e3bc8a" stroke="#e3bc8a"></path><path d="M316 633L453 633L468 435.4Z" fill="#e0b988" stroke="#e0b988"></path><path d="M695 633L722 583.4L571 506.4Z" fill="#e0b988" stroke="#e0b988"></path><path d="M284 65.6L340 239.2L350 226.2Z" fill="#e3bc8a" stroke="#e3bc8a"></path><path d="M340 239.2L176 301.2L363 333.8Z" fill="#edc48f" stroke="#edc48f"></path><path d="M169 404.8L211 505.4L254 413.8Z" fill="#deb887" stroke="#deb887"></path><path d="M254 413.8L316 633L468 435.4Z" fill="#e0b988" stroke="#e0b988"></path><path d="M176 301.2L169 404.8L254 413.8Z" fill="#e9c18d" stroke="#e9c18d"></path><path d="M584 74.6L448 0L442 101.6Z" fill="#efc590" stroke="#efc590"></path><path d="M442 101.6L284 65.6L350 226.2Z" fill="#f1c791" stroke="#f1c791"></path><path d="M718 0L584 74.6L710 179.2Z" fill="#edc48f" stroke="#edc48f"></path><path d="M584 74.6L582 0L448 0Z" fill="#e5be8b" stroke="#e5be8b"></path><path d="M211 505.4L316 633L254 413.8Z" fill="#e0b988" stroke="#e0b988"></path><path d="M496 633L695 633L571 506.4Z" fill="#edc48f" stroke="#edc48f"></path><path d="M448 0L284 65.6L442 101.6Z" fill="#edc48f" stroke="#edc48f"></path><path d="M816 633L851 515.4L722 583.4Z" fill="#efc590" stroke="#efc590"></path><path d="M722 583.4L851 515.4L738 452.8Z" fill="#e3bc8a" stroke="#e3bc8a"></path><path d="M958 201.2L906 138.6L724 180.6Z" fill="#e2bb89" stroke="#e2bb89"></path><path d="M830 0L718 0L724 180.6Z" fill="#deb887" stroke="#deb887"></path><path d="M724 180.6L718 0L710 179.2Z" fill="#e7bf8c" stroke="#e7bf8c"></path><path d="M284 65.6L153 100.6L340 239.2Z" fill="#efc590" stroke="#efc590"></path><path d="M0 474.4L55 554.4L169 404.8Z" fill="#f1c791" stroke="#f1c791"></path><path d="M192 0L153 100.6L284 65.6Z" fill="#e0b988" stroke="#e0b988"></path><path d="M695 633L816 633L722 583.4Z" fill="#e5be8b" stroke="#e5be8b"></path><path d="M211 505.4L182 633L316 633Z" fill="#f1c791" stroke="#f1c791"></path><path d="M55 554.4L182 633L211 505.4Z" fill="#f1c791" stroke="#f1c791"></path><path d="M975 320.8L687 228.2L738 452.8Z" fill="#e0b988" stroke="#e0b988"></path><path d="M963 561.4L945 430.4L851 515.4Z" fill="#e0b988" stroke="#e0b988"></path><path d="M851 515.4L945 430.4L738 452.8Z" fill="#e3bc8a" stroke="#e3bc8a"></path><path d="M448 0L192 0L284 65.6Z" fill="#ebc28e" stroke="#ebc28e"></path><path d="M906 138.6L830 0L724 180.6Z" fill="#efc590" stroke="#efc590"></path><path d="M945 430.4L975 320.8L738 452.8Z" fill="#deb887" stroke="#deb887"></path><path d="M975 320.8L958 201.2L724 180.6Z" fill="#e9c18d" stroke="#e9c18d"></path><path d="M906 138.6L929 0L830 0Z" fill="#ebc28e" stroke="#ebc28e"></path><path d="M1073 429.8L990 308.2L975 320.8Z" fill="#f1c791" stroke="#f1c791"></path><path d="M975 320.8L990 308.2L958 201.2Z" fill="#deb887" stroke="#deb887"></path><path d="M816 633L897 633L851 515.4Z" fill="#efc590" stroke="#efc590"></path><path d="M945 430.4L1073 429.8L975 320.8Z" fill="#e0b988" stroke="#e0b988"></path><path d="M0 425.8L169 404.8L176 301.2Z" fill="#e0b988" stroke="#e0b988"></path><path d="M169 404.8L55 554.4L211 505.4Z" fill="#edc48f" stroke="#edc48f"></path><path d="M897 633L963 561.4L851 515.4Z" fill="#deb887" stroke="#deb887"></path><path d="M0 211.2L0 425.8L176 301.2Z" fill="#e0b988" stroke="#e0b988"></path><path d="M0 211.2L176 301.2L153 100.6Z" fill="#efc590" stroke="#efc590"></path><path d="M0 177.6L0 211.2L153 100.6Z" fill="#e9c18d" stroke="#e9c18d"></path><path d="M0 425.8L0 474.4L169 404.8Z" fill="#edc48f" stroke="#edc48f"></path><path d="M1186 133.6L976 99.6L958 201.2Z" fill="#deb887" stroke="#deb887"></path><path d="M958 201.2L976 99.6L906 138.6Z" fill="#e0b988" stroke="#e0b988"></path><path d="M51 0L0 177.6L153 100.6Z" fill="#e2bb89" stroke="#e2bb89"></path><path d="M976 99.6L929 0L906 138.6Z" fill="#edc48f" stroke="#edc48f"></path><path d="M192 0L51 0L153 100.6Z" fill="#ebc28e" stroke="#ebc28e"></path><path d="M963 561.4L1073 429.8L945 430.4Z" fill="#e3bc8a" stroke="#e3bc8a"></path><path d="M990 308.2L1143 266.2L958 201.2Z" fill="#e9c18d" stroke="#e9c18d"></path><path d="M0 474.4L0 633L55 554.4Z" fill="#ebc28e" stroke="#ebc28e"></path><path d="M55 554.4L0 633L182 633Z" fill="#e2bb89" stroke="#e2bb89"></path><path d="M51 0L0 0L0 177.6Z" fill="#e3bc8a" stroke="#e3bc8a"></path><path d="M1158 442.4L1145 370.8L1073 429.8Z" fill="#e0b988" stroke="#e0b988"></path><path d="M1073 429.8L1145 370.8L990 308.2Z" fill="#e7bf8c" stroke="#e7bf8c"></path><path d="M976 99.6L1058 0L929 0Z" fill="#e3bc8a" stroke="#e3bc8a"></path><path d="M1082 633L1073 429.8L963 561.4Z" fill="#deb887" stroke="#deb887"></path><path d="M1145 370.8L1143 266.2L990 308.2Z" fill="#e9c18d" stroke="#e9c18d"></path><path d="M897 633L1082 633L963 561.4Z" fill="#deb887" stroke="#deb887"></path><path d="M1092 0L1058 0L976 99.6Z" fill="#ebc28e" stroke="#ebc28e"></path><path d="M1300 168.6L1186 133.6L1143 266.2Z" fill="#f1c791" stroke="#f1c791"></path><path d="M1082 633L1158 442.4L1073 429.8Z" fill="#efc590" stroke="#efc590"></path><path d="M1186 133.6L1092 0L976 99.6Z" fill="#e9c18d" stroke="#e9c18d"></path><path d="M1082 633L1145 633L1158 442.4Z" fill="#e5be8b" stroke="#e5be8b"></path><path d="M1143 266.2L1186 133.6L958 201.2Z" fill="#e5be8b" stroke="#e5be8b"></path><path d="M1300 325.8L1143 266.2L1145 370.8Z" fill="#deb887" stroke="#deb887"></path><path d="M1300 327.2L1145 370.8L1158 442.4Z" fill="#e2bb89" stroke="#e2bb89"></path><path d="M1300 473.4L1300 327.2L1158 442.4Z" fill="#ebc28e" stroke="#ebc28e"></path><path d="M1300 327.2L1300 325.8L1145 370.8Z" fill="#e3bc8a" stroke="#e3bc8a"></path><path d="M1145 633L1300 473.4L1158 442.4Z" fill="#e7bf8c" stroke="#e7bf8c"></path><path d="M1300 325.8L1300 168.6L1143 266.2Z" fill="#deb887" stroke="#deb887"></path><path d="M1186 133.6L1300 0L1092 0Z" fill="#e2bb89" stroke="#e2bb89"></path><path d="M1145 633L1300 633L1300 473.4Z" fill="#e3bc8a" stroke="#e3bc8a"></path><path d="M1300 168.6L1300 0L1186 133.6Z" fill="#edc48f" stroke="#edc48f"></path></g></svg>